<?xml version="1.0" encoding="UTF-8" standalone="no"?>
<svg
   xmlns:osb="http://www.openswatchbook.org/uri/2009/osb"
   xmlns:dc="http://purl.org/dc/elements/1.1/"
   xmlns:cc="http://creativecommons.org/ns#"
   xmlns:rdf="http://www.w3.org/1999/02/22-rdf-syntax-ns#"
   xmlns:svg="http://www.w3.org/2000/svg"
   xmlns="http://www.w3.org/2000/svg"
   xmlns:sodipodi="http://sodipodi.sourceforge.net/DTD/sodipodi-0.dtd"
   xmlns:inkscape="http://www.inkscape.org/namespaces/inkscape"
   width="5.6034632in"
   height="6.1732078in"
   viewBox="0 0 142.32796 156.79948"
   version="1.1"
   id="svg8"
   inkscape:version="1.0.1 (3bc2e813f5, 2020-09-07)"
   sodipodi:docname="fundamental_group.svg">
  <defs
     id="defs2">
    <marker
       style="overflow:visible"
       id="marker3152"
       refX="0"
       refY="0"
       orient="auto"
       inkscape:stockid="Arrow2Lend"
       inkscape:isstock="true">
      <path
         transform="matrix(-1.1,0,0,-1.1,-1.1,0)"
         d="M 8.7185878,4.0337352 -2.2072895,0.01601326 8.7185884,-4.0017078 c -1.7454984,2.3720609 -1.7354408,5.6174519 -6e-7,8.035443 z"
         style="fill:#4444ff;fill-opacity:1;fill-rule:evenodd;stroke:#4444ff;stroke-width:0.625;stroke-linejoin:round;stroke-opacity:1"
         id="path3150" />
    </marker>
    <inkscape:path-effect
       effect="bspline"
       id="path-effect3148"
       is_visible="true"
       lpeversion="1"
       weight="33.333333"
       steps="2"
       helper_size="0"
       apply_no_weight="true"
       apply_with_weight="true"
       only_selected="false" />
    <marker
       style="overflow:visible"
       id="Arrow2Lend"
       refX="0"
       refY="0"
       orient="auto"
       inkscape:stockid="Arrow2Lend"
       inkscape:isstock="true">
      <path
         transform="matrix(-1.1,0,0,-1.1,-1.1,0)"
         d="M 8.7185878,4.0337352 -2.2072895,0.01601326 8.7185884,-4.0017078 c -1.7454984,2.3720609 -1.7354408,5.6174519 -6e-7,8.035443 z"
         style="fill:#000000;fill-opacity:1;fill-rule:evenodd;stroke:#000000;stroke-width:0.625;stroke-linejoin:round;stroke-opacity:1"
         id="path2849" />
    </marker>
    <marker
       style="overflow:visible"
       id="Arrow1Lend"
       refX="0"
       refY="0"
       orient="auto"
       inkscape:stockid="Arrow1Lend"
       inkscape:isstock="true">
      <path
         transform="matrix(-0.8,0,0,-0.8,-10,0)"
         style="fill:#000000;fill-opacity:1;fill-rule:evenodd;stroke:#000000;stroke-width:1pt;stroke-opacity:1"
         d="M 0,0 5,-5 -12.5,0 5,5 Z"
         id="path2831" />
    </marker>
    <inkscape:path-effect
       effect="bspline"
       id="path-effect2826"
       is_visible="true"
       lpeversion="1"
       weight="33.333333"
       steps="2"
       helper_size="0"
       apply_no_weight="true"
       apply_with_weight="true"
       only_selected="false" />
    <linearGradient
       id="linearGradient2789"
       osb:paint="solid">
      <stop
         style="stop-color:#ffffff;stop-opacity:1;"
         offset="0"
         id="stop2787" />
    </linearGradient>
    <inkscape:path-effect
       effect="bspline"
       id="path-effect12"
       is_visible="true"
       lpeversion="1"
       weight="33.333333"
       steps="2"
       helper_size="0"
       apply_no_weight="true"
       apply_with_weight="true"
       only_selected="false" />
  </defs>
  <sodipodi:namedview
     id="base"
     pagecolor="#ffffff"
     bordercolor="#666666"
     borderopacity="1.0"
     inkscape:pageopacity="0.0"
     inkscape:pageshadow="2"
     inkscape:zoom="0.87885424"
     inkscape:cx="-78.964457"
     inkscape:cy="293.45158"
     inkscape:document-units="mm"
     inkscape:current-layer="layer1"
     inkscape:document-rotation="0"
     showgrid="false"
     units="in"
     inkscape:window-width="1920"
     inkscape:window-height="1001"
     inkscape:window-x="-9"
     inkscape:window-y="-9"
     inkscape:window-maximized="1" />
  <metadata
     id="metadata5">
    <rdf:RDF>
      <cc:Work
         rdf:about="">
        <dc:format>image/svg+xml</dc:format>
        <dc:type
           rdf:resource="http://purl.org/dc/dcmitype/StillImage" />
        <dc:title />
      </cc:Work>
    </rdf:RDF>
  </metadata>
  <g
     inkscape:label="Layer 1"
     inkscape:groupmode="layer"
     id="layer1"
     transform="translate(-54.063689,-33.765757)">
    <path
       style="opacity:0.5;fill:#ffff88;fill-opacity:1;stroke:#000000;stroke-width:0.264583px;stroke-linecap:butt;stroke-linejoin:miter;stroke-opacity:1"
       d="m 61.917204,131.31032 c -3.612718,-2.05713 -4.31518,-3.161 -5.920903,-11.08892 -1.605724,-7.92793 -4.114464,-22.679327 2.810045,-31.259581 6.924509,-8.580253 23.281166,-10.988596 35.674708,-19.317893 12.393546,-8.329298 20.822906,-22.57894 31.861876,-29.904655 11.03896,-7.325714 24.68651,-7.727112 39.23766,-1.404705 14.55116,6.322408 30.00499,19.367852 30.65703,30.406479 0.65203,11.038628 -13.49726,20.070089 -25.79046,28.850952 -12.2932,8.780863 -22.72955,17.310583 -21.12369,30.607513 1.60586,13.29693 15.2534,31.35985 13.19598,43.50229 -2.05742,12.14243 -19.8193,18.36411 -35.62473,18.71537 -15.80543,0.35127 -29.653683,-5.16796 -33.467171,-16.4075 -3.813488,-11.23954 2.40819,-28.19863 1.605387,-34.92225 -0.802803,-6.72362 -8.63007,-3.21138 -15.80518,-2.96043 -7.17511,0.25095 -13.697834,-2.75954 -17.310552,-4.81667 z"
       id="path10"
       inkscape:original-d="m 59.00675,130.35675 c -0.702196,-1.1036 -1.404657,-2.20747 -2.107383,-3.3116 -2.508578,-14.75172 -5.017317,-29.503113 -7.526371,-44.255065 16.357903,-2.408222 32.71456,-4.816565 49.07194,-7.225317 8.429974,-14.249954 16.859334,-28.499599 25.288604,-42.749789 13.64836,-0.40115 27.29591,-0.80255 40.94346,-1.204219 15.45473,13.046234 30.90856,26.091684 46.36245,39.137129 -14.1496,9.032092 -28.29889,18.063556 -42.44874,27.094936 -10.43651,8.530325 -20.87287,17.060035 -31.3097,25.589665 13.64836,18.06392 27.2959,36.12684 40.94346,54.18987 -17.76233,6.22219 -35.52421,12.44387 -53.28671,18.6654 -13.84853,-5.51918 -27.69678,-11.03841 -41.545566,-16.55802 6.222188,-16.95949 12.443865,-33.91858 18.665396,-50.87826 -7.827314,3.51264 -15.654583,7.02487 -23.482276,10.53692 -6.52272,-3.01035 -13.045445,-6.02084 -19.568564,-9.03165 z"
       inkscape:path-effect="#path-effect12"
       sodipodi:nodetypes="ccccccccccccccc" />
    <circle
       style="fill:#ffffff;fill-opacity:1;stroke:#000000;stroke-width:0.465;stroke-opacity:1"
       id="path14"
       cx="93.778587"
       cy="97.391243"
       r="12.794831" />
    <ellipse
       style="fill:#ffffff;fill-opacity:1;stroke:#000000;stroke-width:0.212402;stroke-opacity:1"
       id="path14-1"
       cx="151.63615"
       cy="88.845695"
       rx="5.9968686"
       ry="5.6958137" />
    <circle
       style="fill:#000000;fill-opacity:1;stroke:#000000;stroke-width:0.465;stroke-opacity:1"
       id="path2822"
       cx="117.41138"
       cy="131.41045"
       r="2" />
    <path
       style="fill:none;stroke:#000000;stroke-width:0.265;stroke-linecap:butt;stroke-linejoin:miter;stroke-miterlimit:4;stroke-dasharray:none;stroke-opacity:1;marker-mid:url(#Arrow2Lend)"
       d="m 117.0918,121.47538 c 2.00692,-8.07841 7.92756,-20.72248 9.08174,-30.406483 1.15417,-9.684004 -2.45834,-16.407298 2.00739,-21.676041 4.46573,-5.268743 17.00918,-9.081952 24.18443,-7.52629 7.17524,1.555663 8.9815,8.479651 10.58716,14.551044 1.60566,6.071393 3.01052,11.289467 0.40137,14.851836 -2.60915,3.562369 -9.23223,5.469003 -15.30349,5.719932 -6.07125,0.250928 -11.59048,-1.153961 -14.30013,2.509042 -2.70965,3.663 -2.6093,12.39342 -4.61639,19.41797 -2.00708,7.02455 -6.12142,12.34308 -9.13189,13.24635 -3.01047,0.90327 -4.9171,-2.60896 -2.91019,-10.68736 z"
       id="path2824"
       inkscape:path-effect="#path-effect2826"
       inkscape:original-d="m 113.17803,126.04115 c 5.92101,-12.64403 11.84165,-25.2881 17.76224,-37.932892 -3.61246,-6.723416 -7.22498,-13.446709 -10.83797,-20.170658 12.54446,-3.813171 25.08791,-7.626381 37.63185,-11.440083 1.80663,6.924664 3.61289,13.848652 5.41899,20.772785 1.40522,5.218651 2.81008,10.436727 4.21477,15.654853 -6.62308,1.906976 -13.24616,3.813613 -19.86963,5.720014 -5.51918,-1.404671 -11.03841,-2.809565 -16.55801,-4.214746 0.10061,8.730997 0.20097,17.461417 0.30105,26.191747 -4.11423,5.319 -8.22857,10.63753 -12.34325,15.9559 -1.90645,-3.51211 -3.81309,-7.02434 -5.72004,-10.53692 z"
       sodipodi:nodetypes="ccccccccccc" />
    <path
       style="fill:none;stroke:#4444ff;stroke-width:0.26499999;stroke-linecap:butt;stroke-linejoin:miter;stroke-miterlimit:4;stroke-dasharray:none;stroke-dashoffset:0;stroke-opacity:1;marker-mid:url(#marker3152)"
       d="m 116.04738,131.88541 c -2.05715,-1.85637 -3.96383,-8.37922 -3.96388,-16.6082 -4e-5,-8.22899 1.9066,-18.163605 1.85646,-27.195281 -0.0501,-9.031676 -2.05713,-17.159995 4.31539,-23.382018 6.37253,-6.222023 21.12392,-10.537055 28.24879,-7.526254 7.12487,3.010801 6.62312,13.346812 9.13213,20.220903 2.509,6.874091 8.02823,10.285974 8.07819,14.701405 0.05,4.415431 -5.36891,9.834305 -10.68744,10.687365 -5.31854,0.85306 -10.53672,-2.859879 -13.94881,-8.429419 -3.41208,-5.56954 -5.01768,-12.995412 -7.57674,-12.895079 -2.55906,0.100333 -6.0713,7.726904 -7.72707,16.758734 -1.65577,9.031824 -1.45507,19.468184 -2.45863,26.091304 -1.00355,6.62312 -3.21124,9.4329 -5.26839,7.57654 z"
       id="path3146" />
    <text
       xml:space="preserve"
       style="font-style:normal;font-variant:normal;font-weight:normal;font-stretch:normal;font-size:7.05556px;line-height:1.25;font-family:sans-serif;-inkscape-font-specification:'sans-serif, Normal';font-variant-ligatures:normal;font-variant-caps:normal;font-variant-numeric:normal;font-variant-east-asian:normal;stroke:#000000;stroke-width:0.264583;stroke-opacity:1"
       x="163.2243"
       y="75.761902"
       id="text3144-5"><tspan
         sodipodi:role="line"
         id="tspan3352"
         x="163.2243"
         y="75.761902">$g$</tspan></text>
    <text
       xml:space="preserve"
       style="font-style:normal;font-variant:normal;font-weight:normal;font-stretch:normal;font-size:7.05556px;line-height:1.25;font-family:sans-serif;-inkscape-font-specification:'sans-serif, Normal';font-variant-ligatures:normal;font-variant-caps:normal;font-variant-numeric:normal;font-variant-east-asian:normal;stroke-width:0.264583"
       x="105.67781"
       y="68.007423"
       id="text3144-50"><tspan
         sodipodi:role="line"
         id="tspan3362"
         x="105.67781"
         y="68.007423">$g'$</tspan></text>
  </g>
</svg>
