<?xml version="1.0" encoding="UTF-8" standalone="no"?>
<svg
   xmlns:osb="http://www.openswatchbook.org/uri/2009/osb"
   xmlns:dc="http://purl.org/dc/elements/1.1/"
   xmlns:cc="http://creativecommons.org/ns#"
   xmlns:rdf="http://www.w3.org/1999/02/22-rdf-syntax-ns#"
   xmlns:svg="http://www.w3.org/2000/svg"
   xmlns="http://www.w3.org/2000/svg"
   xmlns:sodipodi="http://sodipodi.sourceforge.net/DTD/sodipodi-0.dtd"
   xmlns:inkscape="http://www.inkscape.org/namespaces/inkscape"
   width="5.0483885in"
   height="8.5009146in"
   viewBox="0 0 128.22906 215.92323"
   version="1.1"
   id="svg8"
   inkscape:version="1.0.1 (3bc2e813f5, 2020-09-07)"
   sodipodi:docname="not_normal_cover.svg">
  <defs
     id="defs2">
    <inkscape:path-effect
       effect="spiro"
       id="path-effect1557"
       is_visible="true"
       lpeversion="1" />
    <inkscape:path-effect
       effect="spiro"
       id="path-effect1961"
       is_visible="true"
       lpeversion="1" />
    <marker
       style="overflow:visible"
       id="marker1836"
       refX="0"
       refY="0"
       orient="auto"
       inkscape:stockid="Arrow2Lend"
       inkscape:isstock="true">
      <path
         transform="matrix(-1.1,0,0,-1.1,-1.1,0)"
         d="M 8.7185878,4.0337352 -2.2072895,0.01601326 8.7185884,-4.0017078 c -1.7454984,2.3720609 -1.7354408,5.6174519 -6e-7,8.035443 z"
         style="fill:#000000;fill-opacity:1;fill-rule:evenodd;stroke:#000000;stroke-width:0.625;stroke-linejoin:round;stroke-opacity:1"
         id="path1834" />
    </marker>
    <marker
       style="overflow:visible"
       id="marker1826"
       refX="0"
       refY="0"
       orient="auto"
       inkscape:stockid="Arrow2Lend"
       inkscape:isstock="true">
      <path
         transform="matrix(-1.1,0,0,-1.1,-1.1,0)"
         d="M 8.7185878,4.0337352 -2.2072895,0.01601326 8.7185884,-4.0017078 c -1.7454984,2.3720609 -1.7354408,5.6174519 -6e-7,8.035443 z"
         style="fill:#000000;fill-opacity:1;fill-rule:evenodd;stroke:#000000;stroke-width:0.625;stroke-linejoin:round;stroke-opacity:1"
         id="path1824" />
    </marker>
    <marker
       style="overflow:visible"
       id="marker1816"
       refX="0"
       refY="0"
       orient="auto"
       inkscape:stockid="Arrow2Lend"
       inkscape:isstock="true">
      <path
         transform="matrix(-1.1,0,0,-1.1,-1.1,0)"
         d="M 8.7185878,4.0337352 -2.2072895,0.01601326 8.7185884,-4.0017078 c -1.7454984,2.3720609 -1.7354408,5.6174519 -6e-7,8.035443 z"
         style="fill:#000000;fill-opacity:1;fill-rule:evenodd;stroke:#000000;stroke-width:0.625;stroke-linejoin:round;stroke-opacity:1"
         id="path1814" />
    </marker>
    <inkscape:path-effect
       effect="spiro"
       id="path-effect1714"
       is_visible="true"
       lpeversion="1" />
    <inkscape:path-effect
       effect="spiro"
       id="path-effect1710"
       is_visible="true"
       lpeversion="1" />
    <inkscape:path-effect
       effect="spiro"
       id="path-effect1706"
       is_visible="true"
       lpeversion="1" />
    <marker
       style="overflow:visible"
       id="marker1444"
       refX="0"
       refY="0"
       orient="auto"
       inkscape:stockid="Arrow2Lstart"
       inkscape:isstock="true">
      <path
         transform="matrix(1.1,0,0,1.1,1.1,0)"
         d="M 8.7185878,4.0337352 -2.2072895,0.01601326 8.7185884,-4.0017078 c -1.7454984,2.3720609 -1.7354408,5.6174519 -6e-7,8.035443 z"
         style="fill:#000000;fill-opacity:1;fill-rule:evenodd;stroke:#000000;stroke-width:0.625;stroke-linejoin:round;stroke-opacity:1"
         id="path1442" />
    </marker>
    <inkscape:perspective
       sodipodi:type="inkscape:persp3d"
       inkscape:vp_x="0 : 107.97323 : 1"
       inkscape:vp_y="0 : 1000 : 0"
       inkscape:vp_z="279.39999 : 107.97323 : 1"
       inkscape:persp3d-origin="139.69999 : 71.989899 : 1"
       id="perspective873" />
    <marker
       style="overflow:visible"
       id="marker3152"
       refX="0"
       refY="0"
       orient="auto"
       inkscape:stockid="Arrow2Lend"
       inkscape:isstock="true"
       inkscape:collect="always">
      <path
         transform="matrix(-1.1,0,0,-1.1,-1.1,0)"
         d="M 8.7185878,4.0337352 -2.2072895,0.01601326 8.7185884,-4.0017078 c -1.7454984,2.3720609 -1.7354408,5.6174519 -6e-7,8.035443 z"
         style="fill:#000000;fill-opacity:1;fill-rule:evenodd;stroke:#000000;stroke-width:0.625;stroke-linejoin:round;stroke-opacity:1"
         id="path3150" />
    </marker>
    <inkscape:path-effect
       effect="bspline"
       id="path-effect3148"
       is_visible="true"
       lpeversion="1"
       weight="33.333333"
       steps="2"
       helper_size="0"
       apply_no_weight="true"
       apply_with_weight="true"
       only_selected="false" />
    <marker
       style="overflow:visible"
       id="Arrow2Lend"
       refX="0"
       refY="0"
       orient="auto"
       inkscape:stockid="Arrow2Lend"
       inkscape:isstock="true">
      <path
         transform="matrix(-1.1,0,0,-1.1,-1.1,0)"
         d="M 8.7185878,4.0337352 -2.2072895,0.01601326 8.7185884,-4.0017078 c -1.7454984,2.3720609 -1.7354408,5.6174519 -6e-7,8.035443 z"
         style="fill:#000000;fill-opacity:1;fill-rule:evenodd;stroke:#000000;stroke-width:0.625;stroke-linejoin:round;stroke-opacity:1"
         id="path2849" />
    </marker>
    <marker
       style="overflow:visible"
       id="Arrow1Lend"
       refX="0"
       refY="0"
       orient="auto"
       inkscape:stockid="Arrow1Lend"
       inkscape:isstock="true">
      <path
         transform="matrix(-0.8,0,0,-0.8,-10,0)"
         style="fill:#000000;fill-opacity:1;fill-rule:evenodd;stroke:#000000;stroke-width:1pt;stroke-opacity:1"
         d="M 0,0 5,-5 -12.5,0 5,5 Z"
         id="path2831" />
    </marker>
    <inkscape:path-effect
       effect="bspline"
       id="path-effect2826"
       is_visible="true"
       lpeversion="1"
       weight="33.333333"
       steps="2"
       helper_size="0"
       apply_no_weight="true"
       apply_with_weight="true"
       only_selected="false" />
    <linearGradient
       id="linearGradient2789"
       osb:paint="solid">
      <stop
         style="stop-color:#ffffff;stop-opacity:1;"
         offset="0"
         id="stop2787" />
    </linearGradient>
    <inkscape:path-effect
       effect="bspline"
       id="path-effect12"
       is_visible="true"
       lpeversion="1"
       weight="33.333333"
       steps="2"
       helper_size="0"
       apply_no_weight="true"
       apply_with_weight="true"
       only_selected="false" />
    <marker
       style="overflow:visible"
       id="marker1836-1"
       refX="0"
       refY="0"
       orient="auto"
       inkscape:stockid="Arrow2Lend"
       inkscape:isstock="true">
      <path
         transform="matrix(-1.1,0,0,-1.1,-1.1,0)"
         d="M 8.7185878,4.0337352 -2.2072895,0.01601326 8.7185884,-4.0017078 c -1.7454984,2.3720609 -1.7354408,5.6174519 -6e-7,8.035443 z"
         style="fill:#000000;fill-opacity:1;fill-rule:evenodd;stroke:#000000;stroke-width:0.625;stroke-linejoin:round;stroke-opacity:1"
         id="path1834-2" />
    </marker>
    <marker
       style="overflow:visible"
       id="marker1444-8"
       refX="0"
       refY="0"
       orient="auto"
       inkscape:stockid="Arrow2Lstart"
       inkscape:isstock="true">
      <path
         transform="matrix(1.1,0,0,1.1,1.1,0)"
         d="M 8.7185878,4.0337352 -2.2072895,0.01601326 8.7185884,-4.0017078 c -1.7454984,2.3720609 -1.7354408,5.6174519 -6e-7,8.035443 z"
         style="fill:#000000;fill-opacity:1;fill-rule:evenodd;stroke:#000000;stroke-width:0.625;stroke-linejoin:round;stroke-opacity:1"
         id="path1442-5" />
    </marker>
    <marker
       style="overflow:visible"
       id="marker3152-7"
       refX="0"
       refY="0"
       orient="auto"
       inkscape:stockid="Arrow2Lend"
       inkscape:isstock="true"
       inkscape:collect="always">
      <path
         transform="matrix(-1.1,0,0,-1.1,-1.1,0)"
         d="M 8.7185878,4.0337352 -2.2072895,0.01601326 8.7185884,-4.0017078 c -1.7454984,2.3720609 -1.7354408,5.6174519 -6e-7,8.035443 z"
         style="fill:#000000;fill-opacity:1;fill-rule:evenodd;stroke:#000000;stroke-width:0.625;stroke-linejoin:round;stroke-opacity:1"
         id="path3150-9" />
    </marker>
  </defs>
  <sodipodi:namedview
     id="base"
     pagecolor="#ffffff"
     bordercolor="#666666"
     borderopacity="1.0"
     inkscape:pageopacity="0.0"
     inkscape:pageshadow="2"
     inkscape:zoom="1.0289025"
     inkscape:cx="157.33782"
     inkscape:cy="421.44396"
     inkscape:document-units="mm"
     inkscape:current-layer="layer1"
     inkscape:document-rotation="0"
     showgrid="false"
     units="in"
     inkscape:window-width="1920"
     inkscape:window-height="1001"
     inkscape:window-x="-9"
     inkscape:window-y="-9"
     inkscape:window-maximized="1" />
  <metadata
     id="metadata5">
    <rdf:RDF>
      <cc:Work
         rdf:about="">
        <dc:format>image/svg+xml</dc:format>
        <dc:type
           rdf:resource="http://purl.org/dc/dcmitype/StillImage" />
        <dc:title />
      </cc:Work>
    </rdf:RDF>
  </metadata>
  <g
     inkscape:label="Layer 1"
     inkscape:groupmode="layer"
     id="layer1"
     transform="translate(-76.213008,-74.988592)">
    <text
       xml:space="preserve"
       style="font-style:normal;font-variant:normal;font-weight:normal;font-stretch:normal;font-size:7.05556px;line-height:1.25;font-family:sans-serif;-inkscape-font-specification:'sans-serif, Normal';font-variant-ligatures:normal;font-variant-caps:normal;font-variant-numeric:normal;font-variant-east-asian:normal;stroke-width:0.5;stroke-miterlimit:4;stroke-dasharray:none"
       x="181.95125"
       y="204.52534"
       id="text1700-6-7-4"><tspan
         sodipodi:role="line"
         id="tspan1565"
         x="181.95125"
         y="204.52534">$p$</tspan></text>
    <path
       style="fill:none;stroke:#000000;stroke-width:0.5;stroke-linecap:butt;stroke-linejoin:miter;stroke-miterlimit:4;stroke-dasharray:none;stroke-opacity:1;marker-start:url(#marker1444);marker-end:url(#marker3152)"
       d="M 77.04886,139.10313 H 203.60623"
       id="path891" />
    <path
       style="fill:none;stroke:#000000;stroke-width:0.5;stroke-linecap:butt;stroke-linejoin:miter;stroke-miterlimit:4;stroke-dasharray:none;stroke-opacity:1;marker-start:url(#marker1444-8);marker-end:url(#marker3152-7)"
       d="M 140.32755,75.824444 V 202.38182"
       id="path891-0" />
    <circle
       style="fill:#000000;fill-opacity:1;stroke:none;stroke-width:0.5;stroke-miterlimit:4;stroke-dasharray:none;stroke-dashoffset:0;stroke-opacity:1"
       id="path893-6-0"
       cx="159.94075"
       cy="139.21785"
       r="1" />
    <path
       id="path1385"
       style="fill:none;stroke:#000000;stroke-width:0.5;stroke-linecap:butt;stroke-linejoin:miter;stroke-miterlimit:4;stroke-dasharray:none;stroke-opacity:1"
       d="m 160.03834,126.33265 c -4.11564,0.62906 -7.78712,4.0452 -2.70758,9.96037 0.74161,0.73133 1.60629,1.50404 2.60733,2.3182 0.0497,0.11343 0.0745,0.16922 0.0811,0.18397 0.006,0.005 0.0169,0.013 0.0191,0.0147 0.002,-0.002 0.0135,-0.0102 0.0194,-0.0147 0.007,-0.0147 0.0315,-0.0705 0.0811,-0.18397 1.00169,-0.81469 1.86695,-1.58773 2.60889,-2.31949 5.07784,-5.91442 1.40602,-9.33017 -2.7094,-9.95908 z" />
    <circle
       style="fill:#000000;fill-opacity:1;stroke:none;stroke-width:0.5;stroke-miterlimit:4;stroke-dasharray:none;stroke-dashoffset:0;stroke-opacity:1"
       id="path893-6-0-1"
       cx="188.1846"
       cy="139.21785"
       r="1" />
    <path
       id="path1385-2"
       style="fill:none;stroke:#000000;stroke-width:0.5;stroke-linecap:butt;stroke-linejoin:miter;stroke-miterlimit:4;stroke-dasharray:none;stroke-opacity:1"
       d="m 188.28219,126.33265 c -4.11564,0.62906 -7.78712,4.0452 -2.70758,9.96037 0.74161,0.73133 1.60629,1.50404 2.60733,2.3182 0.0497,0.11343 0.0745,0.16922 0.0811,0.18397 0.006,0.005 0.0169,0.013 0.0191,0.0147 0.002,-0.002 0.0135,-0.0102 0.0194,-0.0147 0.007,-0.0147 0.0315,-0.0705 0.0811,-0.18397 1.00169,-0.81469 1.86695,-1.58773 2.60889,-2.31949 5.07784,-5.91442 1.40602,-9.33017 -2.7094,-9.95908 z" />
    <circle
       style="fill:#000000;fill-opacity:1;stroke:none;stroke-width:0.5;stroke-miterlimit:4;stroke-dasharray:none;stroke-dashoffset:0;stroke-opacity:1"
       id="path893-6-0-5"
       cx="116.94543"
       cy="139.21785"
       r="1" />
    <path
       id="path1385-7"
       style="fill:none;stroke:#000000;stroke-width:0.5;stroke-linecap:butt;stroke-linejoin:miter;stroke-miterlimit:4;stroke-dasharray:none;stroke-opacity:1"
       d="m 117.04302,126.33265 c -4.11564,0.62906 -7.78712,4.0452 -2.70758,9.96037 0.74161,0.73133 1.60629,1.50404 2.60733,2.3182 0.0497,0.11343 0.0745,0.16922 0.0811,0.18397 0.006,0.005 0.0169,0.013 0.0191,0.0147 0.002,-0.002 0.0135,-0.0102 0.0194,-0.0147 0.007,-0.0147 0.0315,-0.0705 0.0811,-0.18397 1.00169,-0.81469 1.86695,-1.58773 2.60889,-2.31949 5.07784,-5.91442 1.40602,-9.33017 -2.7094,-9.95908 z" />
    <circle
       style="fill:#000000;fill-opacity:1;stroke:none;stroke-width:0.5;stroke-miterlimit:4;stroke-dasharray:none;stroke-dashoffset:0;stroke-opacity:1"
       id="path893-6-0-0"
       cx="95.158699"
       cy="139.21785"
       r="1" />
    <path
       id="path1385-4"
       style="fill:none;stroke:#000000;stroke-width:0.5;stroke-linecap:butt;stroke-linejoin:miter;stroke-miterlimit:4;stroke-dasharray:none;stroke-opacity:1"
       d="m 95.256288,126.33265 c -4.115645,0.62906 -7.787125,4.0452 -2.707585,9.96037 0.741615,0.73133 1.606295,1.50404 2.607335,2.3182 0.0497,0.11343 0.07454,0.16922 0.08113,0.18397 0.0059,0.005 0.01685,0.013 0.0191,0.0147 0.0025,-0.002 0.0135,-0.0102 0.0194,-0.0147 0.0066,-0.0147 0.03145,-0.0705 0.08113,-0.18397 1.00169,-0.81469 1.866945,-1.58773 2.608885,-2.31949 5.077837,-5.91442 1.406025,-9.33017 -2.709395,-9.95908 z" />
    <circle
       style="fill:#000000;fill-opacity:1;stroke:none;stroke-width:0.5;stroke-miterlimit:4;stroke-dasharray:none;stroke-dashoffset:0;stroke-opacity:1"
       id="path893-6-0-00"
       cx="156.16792"
       cy="-140.55594"
       r="1"
       transform="rotate(90)" />
    <path
       id="path1385-8"
       style="fill:none;stroke:#000000;stroke-width:0.5;stroke-linecap:butt;stroke-linejoin:miter;stroke-miterlimit:4;stroke-dasharray:none;stroke-opacity:1"
       d="m 153.44114,156.26551 c -0.62906,-4.11564 -4.0452,-7.78712 -9.96037,-2.70758 -0.73133,0.74162 -1.50404,1.6063 -2.31821,2.60734 -0.11342,0.0497 -0.16921,0.0745 -0.18396,0.0811 -0.005,0.006 -0.013,0.0169 -0.0147,0.0191 0.002,0.002 0.0102,0.0135 0.0147,0.0194 0.0147,0.007 0.0705,0.0315 0.18396,0.0811 0.8147,1.00169 1.58774,1.86694 2.3195,2.60888 5.91442,5.07784 9.33017,1.40603 9.95908,-2.7094 z" />
    <circle
       style="fill:#000000;fill-opacity:1;stroke:none;stroke-width:0.5;stroke-miterlimit:4;stroke-dasharray:none;stroke-dashoffset:0;stroke-opacity:1"
       id="path893-6-0-1-7"
       cx="184.41177"
       cy="-140.55594"
       r="1"
       transform="rotate(90)" />
    <path
       id="path1385-2-1"
       style="fill:none;stroke:#000000;stroke-width:0.5;stroke-linecap:butt;stroke-linejoin:miter;stroke-miterlimit:4;stroke-dasharray:none;stroke-opacity:1"
       d="m 153.44114,184.50936 c -0.62906,-4.11564 -4.0452,-7.78712 -9.96037,-2.70758 -0.73133,0.74161 -1.50404,1.60629 -2.31821,2.60733 -0.11342,0.0497 -0.16921,0.0745 -0.18396,0.0811 -0.005,0.006 -0.013,0.0169 -0.0147,0.0191 0.002,0.002 0.0102,0.0135 0.0147,0.0194 0.0147,0.007 0.0705,0.0315 0.18396,0.0811 0.8147,1.00169 1.58774,1.86695 2.3195,2.60889 5.91442,5.07784 9.33017,1.40602 9.95908,-2.7094 z" />
    <circle
       style="fill:#000000;fill-opacity:1;stroke:none;stroke-width:0.5;stroke-miterlimit:4;stroke-dasharray:none;stroke-dashoffset:0;stroke-opacity:1"
       id="path893-6-0-5-6"
       cx="113.17261"
       cy="-140.55594"
       r="1"
       transform="rotate(90)" />
    <path
       id="path1385-7-3"
       style="fill:none;stroke:#000000;stroke-width:0.5;stroke-linecap:butt;stroke-linejoin:miter;stroke-miterlimit:4;stroke-dasharray:none;stroke-opacity:1"
       d="m 153.44115,113.2702 c -0.62906,-4.11565 -4.0452,-7.78713 -9.96037,-2.70759 -0.73133,0.74162 -1.50404,1.6063 -2.31821,2.60734 -0.11342,0.0497 -0.16921,0.0745 -0.18396,0.0811 -0.005,0.006 -0.013,0.0169 -0.0147,0.0191 0.002,0.002 0.0102,0.0135 0.0147,0.0194 0.0147,0.007 0.0705,0.0314 0.18396,0.0811 0.8147,1.00169 1.58774,1.86694 2.3195,2.60888 5.91442,5.07784 9.33017,1.40603 9.95908,-2.70939 z" />
    <circle
       style="fill:#000000;fill-opacity:1;stroke:none;stroke-width:0.5;stroke-miterlimit:4;stroke-dasharray:none;stroke-dashoffset:0;stroke-opacity:1"
       id="path893-6-0-0-1"
       cx="91.385864"
       cy="-140.55594"
       r="1"
       transform="rotate(90)" />
    <path
       id="path1385-4-5"
       style="fill:none;stroke:#000000;stroke-width:0.5;stroke-linecap:butt;stroke-linejoin:miter;stroke-miterlimit:4;stroke-dasharray:none;stroke-opacity:1"
       d="m 153.44115,91.483457 c -0.62906,-4.115645 -4.0452,-7.787125 -9.96037,-2.707584 -0.73133,0.741615 -1.50404,1.606295 -2.31821,2.607335 -0.11342,0.0497 -0.16921,0.07454 -0.18396,0.08113 -0.005,0.0058 -0.013,0.01685 -0.0147,0.0191 0.002,0.0025 0.0102,0.0135 0.0147,0.0194 0.0147,0.0066 0.0705,0.03145 0.18396,0.08113 0.8147,1.00169 1.58774,1.866945 2.3195,2.608885 5.91442,5.07784 9.33017,1.406025 9.95908,-2.709396 z" />
    <circle
       style="fill:#000000;fill-opacity:1;stroke:none;stroke-width:0.5;stroke-miterlimit:4;stroke-dasharray:none;stroke-dashoffset:0;stroke-opacity:1"
       id="path893-6-0-3"
       cx="140.55911"
       cy="139.16179"
       r="1" />
    <path
       style="fill:none;stroke:#000000;stroke-width:0.5;stroke-linecap:butt;stroke-linejoin:miter;stroke-miterlimit:4;stroke-dasharray:none;stroke-opacity:1;marker-end:url(#marker1836)"
       d="m 160.91204,187.39418 c 6.90839,6.48346 11.94996,14.93399 14.37379,24.09293 3.60622,13.62684 1.2205,28.72736 -6.41102,40.57875"
       id="path1555"
       inkscape:path-effect="#path-effect1557"
       inkscape:original-d="m 160.91204,187.39418 c 8.56295,7.77391 5.81112,16.31919 14.37379,24.09293 8.56265,7.77373 2.80064,28.63089 -6.41102,40.57875"
       sodipodi:nodetypes="csc" />
    <ellipse
       style="fill:#000000;fill-opacity:1;stroke:none;stroke-width:0.5;stroke-miterlimit:4;stroke-dasharray:none;stroke-dashoffset:0;stroke-opacity:1"
       id="path893-6-0-1-7-2"
       cx="273.59192"
       cy="-140.41544"
       transform="rotate(90)"
       rx="1.6168741"
       ry="1.6768701" />
    <path
       id="path1385-2-1-3"
       style="fill:none;stroke:#000000;stroke-width:0.5;stroke-linecap:butt;stroke-linejoin:miter;stroke-miterlimit:4;stroke-dasharray:none;stroke-opacity:1"
       d="m 181.85443,273.9075 c -2.10971,-13.30896 -13.56657,-25.1816 -33.40451,-8.75564 -2.4527,2.39819 -5.04415,5.19435 -7.77466,8.43146 -0.38038,0.16072 -0.5675,0.24104 -0.61697,0.26236 -0.0151,0.0189 -0.0435,0.0545 -0.0495,0.0618 0.007,0.008 0.0342,0.0437 0.0495,0.0627 0.0495,0.0213 0.23659,0.1017 0.61697,0.26235 2.73229,3.23921 5.32487,6.03723 7.77898,8.43648 19.83543,16.42045 31.29098,4.54673 33.40019,-8.76151 z" />
    <path
       id="path1385-2-1-3-5"
       style="fill:none;stroke:#000000;stroke-width:0.5;stroke-linecap:butt;stroke-linejoin:miter;stroke-miterlimit:4;stroke-dasharray:none;stroke-opacity:1"
       d="m 98.262151,273.783 c 2.109709,-13.30895 13.566569,-25.1816 33.404509,-8.75564 2.45269,2.39819 5.04414,5.19435 7.77466,8.43146 0.38038,0.16072 0.5675,0.24105 0.61697,0.26236 0.0151,0.019 0.0435,0.0545 0.0495,0.0618 -0.007,0.008 -0.0342,0.0437 -0.0495,0.0627 -0.0495,0.0213 -0.23659,0.1017 -0.61697,0.26235 -2.7323,3.23921 -5.32487,6.03723 -7.77899,8.43648 -19.83542,16.42045 -31.29098,4.54673 -33.400179,-8.76151 z" />
  </g>
</svg>
